<svg width="896" height="859" viewBox="0 0 896 859" fill="none" xmlns="http://www.w3.org/2000/svg">
<path d="M448.001 0C219.531 0 34.3187 185.212 34.3187 413.682V852.958H861.685V413.682C861.683 185.212 676.471 0 448.001 0Z" fill="#F4F0ED"/>
<path d="M85.4902 291.51H234.969C234.969 291.51 238.859 275.746 222.091 271.104C222.091 271.104 225.859 252.717 210.527 243.768C195.197 234.818 182.116 249.375 182.116 249.375C182.116 249.375 173.603 227.646 147.274 234.414C126.492 239.758 125.997 261.317 125.997 261.317C125.997 261.317 115.448 255.78 104.477 261.317C95.2779 265.958 94.3501 277.236 94.3501 277.236C94.3501 277.236 77.4729 280.271 85.4902 291.51Z" fill="white"/>
<path d="M457.716 450.565H607.194C607.194 450.565 611.084 434.801 594.318 430.16C594.318 430.16 598.086 411.772 582.754 402.823C567.424 393.874 554.344 408.43 554.344 408.43C554.344 408.43 545.831 386.699 519.501 393.47C498.72 398.813 498.224 420.372 498.224 420.372C498.224 420.372 487.675 414.836 476.706 420.372C467.507 425.013 466.579 436.291 466.579 436.291C466.579 436.291 449.698 439.324 457.716 450.565Z" fill="white"/>
<path d="M366.327 87.5631H515.804C515.804 87.5631 519.694 71.7985 502.928 67.1574C502.928 67.1574 506.696 48.7698 491.364 39.8206C476.034 30.8714 462.953 45.4281 462.953 45.4281C462.953 45.4281 454.441 23.6987 428.111 30.4674C407.33 35.8109 406.834 57.3698 406.834 57.3698C406.834 57.3698 396.285 51.8334 385.314 57.3698C376.115 62.0108 375.187 73.2887 375.187 73.2887C375.187 73.2887 358.31 76.3218 366.327 87.5631Z" fill="white"/>
<path d="M896 847.043H0V858.875H896V847.043Z" fill="#272733"/>
<path d="M243.705 696.623L193.692 719.3L143.68 741.978C143.68 741.978 163.936 787.767 176.044 798.828C188.152 809.888 209.971 825.6 240.525 822.587C262.925 801.589 265.483 774.825 265.142 758.429C264.801 742.031 243.705 696.623 243.705 696.623Z" fill="#E5D6CC"/>
<path d="M132.361 564.425L117.653 571.095L186.356 722.592L201.064 715.922L132.361 564.425Z" fill="#E5B370"/>
<path d="M139.67 568.796L116.137 579.468L121.251 590.744L144.784 580.072L139.67 568.796Z" fill="#DD7040"/>
<path d="M132.268 522.565L86.1805 543.462C82.118 545.303 80.3192 550.088 82.1606 554.151L91.2621 574.224C93.1035 578.286 97.8887 580.085 101.951 578.243L148.039 557.344C152.101 555.503 153.9 550.718 152.059 546.655L142.957 526.583C141.116 522.522 136.331 520.723 132.268 522.565ZM141.189 546.15C142.204 548.387 140.688 551.258 137.807 552.565L105.098 567.396C102.215 568.703 99.0561 567.95 98.043 565.713L93.0324 554.66C92.0194 552.423 93.5339 549.55 96.4148 548.245L129.124 533.414C132.006 532.107 135.165 532.86 136.179 535.097L141.189 546.15Z" fill="#DD7040"/>
<path d="M198.725 706.882L189.882 710.892L181.038 714.901C181.038 714.901 194.77 745.387 199.97 754.083C205.167 762.78 213.753 775.984 221.159 779.868C223.118 771.739 218.843 756.58 215.726 746.938C212.606 737.301 198.725 706.882 198.725 706.882Z" fill="#D6C5BA"/>
<path d="M296.49 799.332C296.49 799.332 313.802 691.379 440.183 655.851C440.183 655.851 420.896 752.288 296.49 799.332Z" fill="#A0D8B4"/>
<path d="M420.896 678.692C420.896 678.692 350.238 727.103 296.49 799.334" stroke="#7FC8A9" stroke-width="0.5" stroke-miterlimit="10"/>
<path d="M281.96 814.93C281.96 814.93 323.283 713.709 233.783 617.666C233.783 617.666 200.134 710.075 281.96 814.93Z" fill="#A0D8B4"/>
<path d="M238.388 647.204C238.388 647.204 273.587 725.288 281.96 814.93" stroke="#7FC8A9" stroke-width="0.5" stroke-miterlimit="10"/>
<path d="M312.413 649.987C312.413 649.987 302.678 620.63 322.881 599.481C343.084 578.333 374.964 586.171 391.695 580.359C391.695 580.359 384.965 664.192 312.413 649.987Z" fill="#409996"/>
<path d="M294.793 553.712C294.793 553.712 300.5 521.83 324.791 514.253C349.083 506.676 368.337 516.779 368.337 516.779C368.337 516.779 349.091 554.031 294.793 553.712Z" fill="#7FC8A9"/>
<path d="M290.369 532.576C290.369 532.576 288.475 490.896 250.595 485.844C250.595 485.844 243.02 532.273 290.369 532.576Z" fill="#409996"/>
<path d="M260.223 569.073C260.223 569.073 270.573 545.819 261.327 520.252C253.748 499.293 219.976 490.896 209.244 482.058C209.244 482.058 185.884 553.185 260.223 569.073Z" fill="#7FC8A9"/>
<path d="M296.366 485.844C296.366 485.844 282.792 462.485 294.158 436.601C305.521 410.718 333.55 400.933 342.737 390.516C342.737 390.516 350.279 421.45 342.737 442.599C335.192 463.747 296.366 485.844 296.366 485.844Z" fill="#409996"/>
<path d="M282.062 485.845C282.062 485.845 288.489 459.645 280.906 435.656C273.324 411.665 207.981 401.25 201.669 396.83C201.669 396.83 215.875 450.492 245.546 468.801C275.218 487.107 282.062 485.845 282.062 485.845Z" fill="#7FC8A9"/>
<path d="M309.782 800.4C309.782 800.4 303.154 741.213 303.154 713.75C303.154 686.287 306.469 671.136 315.938 655.511C325.407 639.887 340.085 616.686 360.446 601.059C360.446 601.059 335.824 617.159 324.461 630.416C313.097 643.673 301.732 658.352 299.838 663.561C297.944 668.769 300.786 627.576 299.838 606.742C298.892 585.908 300.398 548.03 299.172 526.723C297.946 505.416 301.732 468.011 305.521 454.279C309.309 440.548 324.505 421.609 329.69 415.926C329.69 415.926 304.662 435.339 298.937 459.486C293.209 483.634 291.79 495.472 291.315 502.573C290.842 509.675 285.079 482.909 276.164 463.275C262.907 434.076 238.434 421.765 238.434 421.765C238.434 421.765 269.535 447.648 278.531 484.109C287.527 520.567 289.421 562.499 288 580.359C286.579 598.219 289.894 618.422 287.054 618.028C284.214 617.634 267.641 586.103 260.539 563.279C253.438 540.455 227.869 510.152 227.869 510.152C227.869 510.152 252.492 549.926 256.278 567.445C260.066 584.964 279.952 616.688 283.268 628.526C286.583 640.364 287.371 672.561 287.214 693.393C287.056 714.227 287.214 797.415 287.214 797.415L309.782 800.4Z" fill="#46283D"/>
<mask id="mask0_18_4295" style="mask-type:luminance" maskUnits="userSpaceOnUse" x="227" y="415" width="134" height="386">
<path d="M309.782 800.4C309.782 800.4 303.154 741.213 303.154 713.75C303.154 686.287 306.469 671.136 315.938 655.511C325.407 639.887 340.085 616.686 360.446 601.059C360.446 601.059 335.824 617.159 324.461 630.416C313.097 643.673 301.732 658.352 299.838 663.561C297.944 668.769 300.786 627.576 299.838 606.742C298.892 585.908 300.398 548.03 299.172 526.723C297.946 505.416 301.732 468.011 305.521 454.279C309.309 440.548 324.505 421.609 329.69 415.926C329.69 415.926 304.662 435.339 298.937 459.486C293.209 483.634 291.79 495.472 291.315 502.573C290.842 509.675 285.079 482.909 276.164 463.275C262.907 434.076 238.434 421.765 238.434 421.765C238.434 421.765 269.535 447.648 278.531 484.109C287.527 520.567 289.421 562.499 288 580.359C286.579 598.219 289.894 618.422 287.054 618.028C284.214 617.634 267.641 586.103 260.539 563.279C253.438 540.455 227.869 510.152 227.869 510.152C227.869 510.152 252.492 549.926 256.278 567.445C260.066 584.964 279.952 616.688 283.268 628.526C286.583 640.364 287.371 672.561 287.214 693.393C287.056 714.227 287.214 797.415 287.214 797.415L309.782 800.4Z" fill="white"/>
</mask>
<g mask="url(#mask0_18_4295)">
<path d="M241.87 455.012C258.044 458.321 269.643 435.587 268.717 422.08C268.65 421.105 267.127 421.099 267.194 422.08C268.045 434.507 257.344 456.626 242.274 453.542C241.317 453.349 240.909 454.815 241.87 455.012Z" fill="#754C6C"/>
<path d="M292.477 431.981C283.361 461.049 251.594 483.745 259.017 516.982C259.23 517.94 260.698 517.534 260.484 516.578C253.174 483.841 284.949 461.078 293.944 432.387C294.239 431.445 292.769 431.047 292.477 431.981Z" fill="#754C6C"/>
<path d="M320.963 453.264C306.457 477.59 284.325 496.911 281.436 526.607C280.797 533.183 281.814 538.391 288.347 540.707C300.673 545.078 321.712 544.148 325.305 560.542C325.516 561.5 326.984 561.094 326.773 560.138C324.917 551.672 317.227 547.604 309.78 544.501C300.133 540.482 283.016 542.743 282.831 529.121C282.427 499.364 308.197 477.645 322.276 454.033C322.782 453.187 321.464 452.421 320.963 453.264Z" fill="#754C6C"/>
<path d="M306.083 503.495C299.611 507.46 290.235 517.402 291.845 525.819C293.815 536.121 305.265 534.73 313.211 537.083C314.155 537.363 314.555 535.893 313.615 535.615C306.97 533.648 296.338 534.874 293.599 526.912C290.848 518.911 300.721 508.565 306.853 504.809C307.687 504.299 306.924 502.982 306.083 503.495Z" fill="#754C6C"/>
<path d="M236.638 581.2C254.636 590.515 274.197 596.24 292.343 605.38C310.046 614.296 332.697 627.375 320.205 650.515C311.516 666.611 290.477 675.03 277.648 687.603C264.143 700.84 256.954 717.409 253.332 735.644C253.141 736.603 254.609 737.011 254.8 736.048C259.971 710.001 273.149 691.489 294.267 675.71C305.848 667.058 323.249 657.518 325.173 641.455C327.13 625.105 314.665 615.819 301.73 608.549C281.061 596.932 258.324 590.709 237.405 579.882C236.536 579.436 235.767 580.749 236.638 581.2Z" fill="#754C6C"/>
<path d="M265.229 626.1C275.11 629.513 299.306 631.289 292.552 647.078C289.732 653.668 281.767 656.898 276.393 661.139C270.92 665.46 268.388 672.354 266.592 678.826C266.328 679.775 267.797 680.177 268.059 679.23C271.764 665.882 279.674 661.46 289.628 653.38C293.003 650.641 296.698 644.532 295.394 639.928C292.154 628.475 274.893 627.832 265.633 624.632C264.703 624.311 264.308 625.781 265.229 626.1Z" fill="#754C6C"/>
<path d="M322.225 675.487C306.905 699.494 289.157 722.192 283.637 750.796C279.546 771.999 285.284 797.446 300.878 812.774C301.578 813.462 302.656 812.386 301.954 811.698C283.68 793.737 281.004 765.119 287.357 741.412C293.827 717.267 310.322 696.967 323.537 676.256C324.069 675.426 322.751 674.663 322.225 675.487Z" fill="#754C6C"/>
<path d="M317.806 705.79C306.619 723.065 296.88 741.231 297.499 762.362C298.027 780.368 313.437 791.238 326.132 801.411C326.889 802.018 327.975 800.948 327.208 800.335C314.155 789.877 300.924 780.313 299.022 762.362C296.888 742.238 308.655 722.72 319.121 706.559C319.655 705.733 318.338 704.97 317.806 705.79Z" fill="#754C6C"/>
<path d="M224.826 557.286C247.333 564.079 268.79 573.885 291.129 581.151C294.314 582.187 322.66 590.24 319.085 578.484C317.921 574.659 311.477 572.332 308.331 571.037C300.634 567.868 292.649 565.531 284.638 563.308C261.358 556.848 231.536 544.559 215.467 525.712C214.829 524.963 213.757 526.047 214.391 526.788C237.178 553.512 275.143 559.741 306.172 571.784C309.25 572.978 312.2 574.409 314.963 576.21C321.673 580.585 311.697 583.531 308.107 583.382C299.599 583.031 290.948 579.622 283.034 576.756C263.778 569.78 244.854 561.742 225.232 555.818C224.288 555.534 223.888 557.004 224.826 557.286Z" fill="#754C6C"/>
</g>
<path d="M130.612 849.168C182.043 849.168 257.161 773.836 303.18 773.836C349.199 773.836 420.256 849.168 476.424 849.168H130.612Z" fill="#4F3749"/>
<path d="M425.819 138.507C425.819 138.507 401.714 133.272 400.626 133.371C399.54 133.471 383.536 143.447 382.35 144.535C381.164 145.621 387.19 159.847 388.179 160.243C389.167 160.639 391.043 160.243 391.043 160.243C391.043 160.243 393.218 163.503 394.501 163.897C395.786 164.293 398.65 162.909 398.65 162.909C398.65 162.909 400.232 165.97 401.615 166.366C402.997 166.762 408.826 163.895 408.826 163.895C408.826 163.895 422.361 166.167 425.027 164.981C427.695 163.796 431.757 161.908 431.757 161.908V149.471L425.819 138.507Z" fill="#BC5F50"/>
<path d="M391.045 160.243C394.109 159.847 396.775 158.761 397.367 158.268C397.96 157.774 402.9 149.889 402.9 149.889" stroke="#9B4840" stroke-width="0.75" stroke-miterlimit="10"/>
<path d="M398.652 162.909C400.431 161.92 404.778 159.748 405.567 158.958C406.357 158.168 409.518 151.154 409.518 151.154" stroke="#9B4840" stroke-width="0.75" stroke-miterlimit="10"/>
<path d="M408.828 163.897C410.903 163.008 413.668 153.623 413.668 153.623" stroke="#9B4840" stroke-width="0.75" stroke-miterlimit="10"/>
<path d="M445.037 285.038L349.68 326.008C349.68 326.008 343.545 322.822 344.223 316.042L420.892 277.005L445.037 285.038Z" fill="#87AEC6"/>
<path d="M347.822 320.616C352.419 331.794 348.961 343.811 340.099 347.455L323.451 306.975C332.313 303.33 343.226 309.437 347.822 320.616Z" fill="#A9D5E0"/>
<path d="M339.876 347.545C341.327 346.958 338.834 337.398 334.309 326.191C329.784 314.984 324.938 306.374 323.488 306.959C322.036 307.545 324.53 317.104 329.055 328.312C333.58 339.521 338.424 348.131 339.876 347.545Z" fill="#87AEC6"/>
<path d="M378.953 178.127C378.953 178.127 372.672 151.631 392.138 144.609C411.603 137.586 426.012 152.266 429.382 164.103C432.752 175.939 435.7 193.569 447.741 196.671" stroke="#A9D5E0" stroke-width="2" stroke-miterlimit="10"/>
<path d="M375.39 180.419L376.941 174.4L381.987 175.699C381.987 175.699 387.631 182.793 393.764 183.982L375.39 180.419Z" fill="#87AEC6"/>
<path d="M452.918 289.744C452.918 289.744 461.199 273.151 468.244 245.809C475.159 218.967 476.056 199.938 476.056 199.938L375.388 180.419L355.352 258.185L452.918 289.744Z" fill="#A9D5E0"/>
<path d="M399.895 185.17L379.014 266.216" stroke="#87AEC6" stroke-width="0.75" stroke-miterlimit="10"/>
<path d="M405.496 186.256L384.528 267.637" stroke="#87AEC6" stroke-width="0.75" stroke-miterlimit="10"/>
<path d="M412.888 187.69L391.64 270.155" stroke="#87AEC6" stroke-width="0.75" stroke-miterlimit="10"/>
<path d="M381.781 230.487L385.141 217.443L316.664 198.728L312.787 213.78L381.781 230.487Z" fill="#87AEC6"/>
<path d="M375.403 226.168C377.62 226.739 379.879 225.405 380.45 223.188C381.02 220.971 379.686 218.711 377.469 218.141C375.252 217.57 372.993 218.904 372.422 221.121C371.852 223.336 373.186 225.596 375.403 226.168Z" fill="#A9D5E0"/>
<path d="M375.79 224.664C377.175 225.021 378.588 224.187 378.945 222.802C379.303 221.417 378.468 220.004 377.084 219.647C375.699 219.29 374.286 220.124 373.929 221.509C373.571 222.893 374.406 224.306 375.79 224.664Z" fill="#87AEC6"/>
<path d="M431.759 161.912C431.759 161.912 494.371 217.55 520.699 225.934C547.027 234.319 609.297 251.148 640.142 244.024C670.987 236.898 662.432 198.066 644.991 194.775C627.549 191.484 554.924 189.009 540.114 185.172C525.305 181.335 436.289 142.46 436.289 142.46C436.289 142.46 429.571 136.928 427.991 136.828C426.41 136.729 408.036 137.322 406.258 138.014C404.479 138.706 394.7 145.028 391.736 145.918C388.772 146.807 382.646 149.375 381.363 150.364C380.078 151.352 380.474 157.279 384.131 156.982C387.785 156.686 393.713 155.6 396.381 154.118C399.049 152.636 401.814 151.054 403.099 150.957C404.384 150.857 419.696 157.871 421.968 157.575C424.239 157.279 431.154 155.403 431.154 155.403L431.759 161.912Z" fill="#CE8565"/>
<path d="M676.749 59.6801C676.749 59.6801 695.673 45.3651 718.05 49.1494C740.429 52.9337 740.758 67.7421 738.618 75.1483C736.478 82.5525 735.985 92.4254 746.515 91.7676C757.046 91.1098 785.183 92.7543 793.411 110.031C801.638 127.309 791.436 138.69 785.349 140.732C779.261 142.775 789.134 146.088 788.476 159.406C787.818 172.724 776.794 187.697 758.693 185.888C740.593 184.077 732.858 169.762 728.416 169.762C723.974 169.762 726.605 188.521 704.064 188.686C681.52 188.85 676.585 173.076 676.749 156.775C676.914 140.474 688.275 138.532 685.477 132.142C682.679 125.753 667.709 130.179 666.876 117.635C665.38 95.1053 692.053 101.312 676.749 59.6801Z" fill="#46283D"/>
<path d="M676.749 59.6801C676.749 59.6801 710.207 56.5658 716.432 73.5079C722.656 90.45 714.759 101.21 722.327 113.601C729.896 125.991 750.348 119.208 761.49 127.719C784.6 145.375 783.869 180.291 768.401 184.831" stroke="#4F3749" stroke-width="0.5" stroke-miterlimit="10"/>
<path d="M765.427 131.107C765.427 131.107 786.255 174.564 752.976 184.833" stroke="#4F3749" stroke-width="0.5" stroke-miterlimit="10"/>
<path d="M679.884 69.7112C684.813 85.1855 683.528 103.561 687.775 111.469C697.24 129.089 710.483 120.726 718.381 140.732C722.453 151.048 730.808 189.195 694.976 187.705" stroke="#4F3749" stroke-width="0.5" stroke-miterlimit="10"/>
<path d="M710.481 181.938C715.979 180.862 737.138 187.204 744.049 191.153C750.96 195.102 794.631 251.377 796.491 255.655C798.349 259.932 779.921 273.096 769.061 279.349C758.201 285.602 741.418 288.236 739.442 287.576C737.467 286.918 733.189 276.716 733.189 276.716C733.189 276.716 713.403 311.928 706.841 320.486L605.204 304.031L614.385 251.152C614.385 251.152 587.728 253.231 584.437 251.152C581.146 249.073 583.78 219.125 590.033 207.608C596.286 196.09 604.512 185.426 608.792 184.833C613.07 184.242 635.449 185.095 641.373 184.833C647.297 184.571 663.504 180.031 671.525 183.123C679.547 186.215 710.481 181.938 710.481 181.938Z" fill="#E5B370"/>
<path d="M733.189 276.716C728.583 266.514 716.897 229.908 716.434 223.403C715.971 216.9 730.651 187.738 746.729 193.394" stroke="#F4F0ED" stroke-width="0.5" stroke-miterlimit="10"/>
<path d="M492.846 838.663C492.846 838.663 490.554 839.203 490.349 841.367C490.142 843.529 490.142 847.043 494.469 847.043C498.795 847.043 589.359 847.043 593.415 847.043C597.469 847.043 595.847 843.799 595.847 840.285C595.847 836.771 596.929 830.552 593.415 830.552C589.901 830.552 504.201 834.96 504.201 834.96L492.846 838.663Z" fill="#E5B370"/>
<mask id="mask1_18_4295" style="mask-type:luminance" maskUnits="userSpaceOnUse" x="490" y="830" width="107" height="18">
<path d="M492.846 838.663C492.846 838.663 490.554 839.203 490.349 841.367C490.142 843.529 490.142 847.043 494.469 847.043C498.795 847.043 589.359 847.043 593.415 847.043C597.469 847.043 595.847 843.799 595.847 840.285C595.847 836.771 596.929 830.552 593.415 830.552C589.901 830.552 504.201 834.96 504.201 834.96L492.846 838.663Z" fill="white"/>
</mask>
<g mask="url(#mask1_18_4295)">
<path d="M589.903 825.416V851.638" stroke="#F4F0ED" stroke-width="0.5" stroke-miterlimit="10"/>
<path d="M579.392 825.416V851.638" stroke="#F4F0ED" stroke-width="0.5" stroke-miterlimit="10"/>
<path d="M568.882 825.416V851.638" stroke="#F4F0ED" stroke-width="0.5" stroke-miterlimit="10"/>
<path d="M558.372 825.416V851.638" stroke="#F4F0ED" stroke-width="0.5" stroke-miterlimit="10"/>
<path d="M547.861 825.416V851.638" stroke="#F4F0ED" stroke-width="0.5" stroke-miterlimit="10"/>
<path d="M537.351 825.416V851.638" stroke="#F4F0ED" stroke-width="0.5" stroke-miterlimit="10"/>
<path d="M526.84 825.416V851.638" stroke="#F4F0ED" stroke-width="0.5" stroke-miterlimit="10"/>
<path d="M516.33 825.416V851.638" stroke="#F4F0ED" stroke-width="0.5" stroke-miterlimit="10"/>
<path d="M505.822 825.416V851.638" stroke="#F4F0ED" stroke-width="0.5" stroke-miterlimit="10"/>
<path d="M495.311 825.416V851.638" stroke="#F4F0ED" stroke-width="0.5" stroke-miterlimit="10"/>
</g>
<path d="M593.415 748.367C593.415 748.367 589.089 790.54 589.089 793.785C589.089 797.029 593.415 827.848 593.415 830.552C593.415 833.256 558.81 836.498 549.619 835.418C540.429 834.336 531.236 841.367 523.667 842.989C516.098 844.611 495.011 839.745 492.848 838.663C490.686 837.58 488.522 826.768 492.848 825.685C497.173 824.603 524.749 815.413 524.749 815.413L551.784 788.378C551.784 788.378 553.946 748.909 556.11 745.123C558.27 741.338 593.415 748.367 593.415 748.367Z" fill="#46283D"/>
<path d="M517.607 817.78C517.607 817.78 529.072 824.334 531.236 824.064C533.398 823.794 563.677 800.274 565.299 796.489C566.921 792.705 568.882 744.49 568.882 744.49" stroke="#4F3749" stroke-width="0.5" stroke-miterlimit="10"/>
<path d="M589.903 801.658C589.903 801.658 573.277 813.143 568.882 834.96" stroke="#4F3749" stroke-width="0.5" stroke-miterlimit="10"/>
<path d="M524.747 815.413C524.747 815.413 527.721 809.48 538.804 824.071" stroke="#409996" stroke-miterlimit="10" stroke-linecap="round" stroke-linejoin="round"/>
<path d="M531.776 808.384C531.776 808.384 536.612 801.288 547.185 816.765" stroke="#409996" stroke-miterlimit="10" stroke-linecap="round" stroke-linejoin="round"/>
<path d="M541.882 798.277C541.882 798.277 543.941 793.245 556.648 809.194" stroke="#409996" stroke-miterlimit="10" stroke-linecap="round" stroke-linejoin="round"/>
<path d="M549.264 790.893C549.264 790.893 551.782 785.404 566.379 799.731" stroke="#409996" stroke-miterlimit="10" stroke-linecap="round" stroke-linejoin="round"/>
<path d="M552.255 780.552C552.255 780.552 551.647 774.861 568.882 785.674" stroke="#409996" stroke-miterlimit="10" stroke-linecap="round" stroke-linejoin="round"/>
<path d="M553.117 768.37C553.117 768.37 554.214 762.424 570.435 771.344" stroke="#409996" stroke-miterlimit="10" stroke-linecap="round" stroke-linejoin="round"/>
<path d="M554.327 755.138C554.327 755.138 554.484 751.095 571.517 755.138" stroke="#409996" stroke-miterlimit="10" stroke-linecap="round" stroke-linejoin="round"/>
<path d="M751.747 840.153C751.747 840.153 750.523 842.163 751.918 843.829C753.313 845.496 755.814 847.965 758.853 844.885C761.892 841.807 825.511 777.35 828.361 774.465C831.21 771.578 827.762 770.456 825.261 767.985C822.76 765.516 819.093 760.378 816.625 762.881C814.156 765.382 757.091 829.47 757.091 829.47L751.747 840.153Z" fill="#E5B370"/>
<mask id="mask2_18_4295" style="mask-type:luminance" maskUnits="userSpaceOnUse" x="751" y="762" width="79" height="85">
<path d="M751.747 840.153C751.747 840.153 750.523 842.163 751.918 843.829C753.313 845.496 755.814 847.965 758.853 844.885C761.892 841.807 825.511 777.35 828.361 774.465C831.21 771.578 827.762 770.456 825.261 767.985C822.76 765.516 819.093 760.378 816.625 762.881C814.156 765.382 757.091 829.47 757.091 829.47L751.747 840.153Z" fill="white"/>
</mask>
<g mask="url(#mask2_18_4295)">
<path d="M810.5 761.772L829.163 780.192" stroke="#F4F0ED" stroke-width="0.5" stroke-miterlimit="10"/>
<path d="M803.116 769.251L821.779 787.674" stroke="#F4F0ED" stroke-width="0.5" stroke-miterlimit="10"/>
<path d="M795.734 776.732L814.396 795.153" stroke="#F4F0ED" stroke-width="0.5" stroke-miterlimit="10"/>
<path d="M788.35 784.212L807.014 802.634" stroke="#F4F0ED" stroke-width="0.5" stroke-miterlimit="10"/>
<path d="M780.966 791.691L799.63 810.114" stroke="#F4F0ED" stroke-width="0.5" stroke-miterlimit="10"/>
<path d="M773.582 799.172L792.246 817.592" stroke="#F4F0ED" stroke-width="0.5" stroke-miterlimit="10"/>
<path d="M766.2 806.652L784.864 825.074" stroke="#F4F0ED" stroke-width="0.5" stroke-miterlimit="10"/>
<path d="M758.816 814.133L777.48 832.553" stroke="#F4F0ED" stroke-width="0.5" stroke-miterlimit="10"/>
<path d="M751.433 821.613L770.096 840.035" stroke="#F4F0ED" stroke-width="0.5" stroke-miterlimit="10"/>
<path d="M744.051 829.092L762.714 847.514" stroke="#F4F0ED" stroke-width="0.5" stroke-miterlimit="10"/>
</g>
<path d="M758.13 705.148C758.13 705.148 785.108 737.852 787.416 740.132C789.724 742.41 814.698 760.983 816.623 762.883C818.547 764.781 796.548 791.69 789.32 797.472C782.093 803.254 780.639 814.733 776.475 821.26C772.311 827.787 754.035 839.375 751.747 840.155C749.459 840.934 740.242 834.876 742.512 831.039C744.782 827.2 757.611 801.118 757.611 801.118L757.361 762.887C757.361 762.887 730.789 733.621 729.614 729.423C728.44 725.222 758.13 705.148 758.13 705.148Z" fill="#46283D"/>
<path d="M754.279 807.86C754.279 807.86 766.998 804.305 768.324 802.576C769.652 800.846 774.181 762.775 772.628 758.963C771.075 755.15 738.137 719.883 738.137 719.883" stroke="#4F3749" stroke-width="0.5" stroke-miterlimit="10"/>
<path d="M793.59 745.082C793.59 745.082 790.084 764.982 802.525 783.437" stroke="#4F3749" stroke-width="0.5" stroke-miterlimit="10"/>
<path d="M757.611 801.116C757.611 801.116 755.479 794.832 773.649 797.193" stroke="#409996" stroke-miterlimit="10" stroke-linecap="round" stroke-linejoin="round"/>
<path d="M757.546 791.176C757.546 791.176 755.893 782.75 774.335 786.096" stroke="#409996" stroke-miterlimit="10" stroke-linecap="round" stroke-linejoin="round"/>
<path d="M757.452 776.885C757.452 776.885 755.316 771.883 775.594 774.045" stroke="#409996" stroke-miterlimit="10" stroke-linecap="round" stroke-linejoin="round"/>
<path d="M757.383 766.444C757.383 766.444 755.243 760.796 775.696 760.471" stroke="#409996" stroke-miterlimit="10" stroke-linecap="round" stroke-linejoin="round"/>
<path d="M752.123 757.05C752.123 757.05 747.646 753.483 767.449 748.816" stroke="#409996" stroke-miterlimit="10" stroke-linecap="round" stroke-linejoin="round"/>
<path d="M744.061 747.88C744.061 747.88 740.599 742.922 758.343 737.646" stroke="#409996" stroke-miterlimit="10" stroke-linecap="round" stroke-linejoin="round"/>
<path d="M735.491 737.723C735.491 737.723 732.724 734.771 747.567 725.489" stroke="#409996" stroke-miterlimit="10" stroke-linecap="round" stroke-linejoin="round"/>
<path d="M331.682 349.115C331.682 349.115 306.115 367.515 312.49 439.271" stroke="white" stroke-miterlimit="10" stroke-dasharray="4 3"/>
<path d="M323.451 336.099C323.451 336.099 278.959 358.939 282.662 449.818" stroke="white" stroke-miterlimit="10" stroke-dasharray="4 3"/>
<path d="M317.881 320.485C317.881 320.485 250.413 331.138 251.07 422.071" stroke="white" stroke-miterlimit="10" stroke-dasharray="4 3"/>
<path d="M667.711 171.929C667.711 171.929 671.485 186.38 669.674 192.139C669.674 192.139 657.661 204.974 662.763 209.581C667.865 214.187 699.95 202.506 710.481 181.937C710.481 181.937 703.101 155.622 701.362 133.978L667.711 171.929Z" fill="#CE8565"/>
<path d="M701.361 133.978L667.711 171.929C667.711 171.929 668.945 176.669 669.664 181.801C671.355 183.162 673.176 184.25 675.044 184.733C681.878 186.501 697.368 163.854 703.248 148.94C702.431 143.952 701.753 138.848 701.361 133.978Z" fill="#BC5F50"/>
<path d="M705.71 111.469C705.71 111.469 683.167 47.8338 679.382 44.7072C675.598 41.5807 640.567 54.4157 637.783 54.0868C635 53.7579 613.116 42.4029 601.597 53.429C590.079 64.4531 597.319 74.8194 597.319 74.8194C597.319 74.8194 584.604 77.1237 582.466 91.2742C580.326 105.425 590.857 110.033 589.541 119.411C588.226 128.791 575.391 137.08 586.415 152.485C598.596 169.504 623.438 160.218 635.284 151.827L705.71 111.469Z" fill="#46283D"/>
<path d="M587.895 83.7036C587.895 83.7036 578.186 88.0097 578.844 100.912C579.502 113.814 585.591 116.5 577.033 134.163C568.478 151.825 591.976 176.036 616.425 156.773" stroke="#46283D" stroke-width="0.5" stroke-miterlimit="10"/>
<path d="M627.468 70.2109C599.967 85.5248 602.046 118.587 611.918 139.319C621.791 160.052 639.809 182.019 666.464 172.394C693.121 162.768 700.032 144.257 702.007 130.187C703.983 116.118 694.849 85.5126 682.016 71.6909C672.626 61.5825 649.189 58.1169 627.468 70.2109Z" fill="#CE8565"/>
<path d="M631.567 115.31C631.567 115.31 639.464 130.614 639.712 134.315L631.567 141.474L644.154 146.904" stroke="#9B4840" stroke-width="0.75" stroke-miterlimit="10"/>
<path d="M646.871 154.309C646.871 154.309 656.989 151.594 659.706 140.735" stroke="#9B4840" stroke-width="0.75" stroke-miterlimit="10"/>
<path d="M656.179 117.357C657.005 119.671 656.38 122.01 654.782 122.58C653.187 123.149 651.223 121.734 650.397 119.419C649.571 117.105 650.196 114.766 651.794 114.196C653.39 113.627 655.353 115.042 656.179 117.357Z" fill="#46283D"/>
<path d="M646.201 114.499C646.201 114.499 646.633 114.907 647.411 115.351C647.815 115.536 648.267 115.806 648.805 115.956C649.335 116.133 649.902 116.301 650.497 116.358C651.075 116.506 651.666 116.545 652.226 116.545C652.787 116.582 653.308 116.584 653.751 116.498C654.644 116.389 655.239 116.316 655.239 116.316L655.284 116.515C655.284 116.515 654.815 117.166 653.885 117.712C653.432 118.031 652.852 118.232 652.202 118.328C651.879 118.368 651.538 118.457 651.195 118.457C650.85 118.449 650.499 118.39 650.143 118.356C649.796 118.271 649.449 118.212 649.118 118.092C648.781 117.982 648.483 117.777 648.184 117.629C647.88 117.497 647.628 117.264 647.396 117.048C647.159 116.845 646.956 116.632 646.789 116.407C646.456 115.954 646.251 115.528 646.152 115.179C646.048 114.848 646.071 114.641 646.058 114.645L646.201 114.499Z" fill="#46283D"/>
<path d="M630.328 128.815C631.155 131.13 630.529 133.468 628.932 134.039C627.336 134.607 625.371 133.192 624.546 130.878C623.72 128.563 624.345 126.225 625.943 125.654C627.541 125.084 629.504 126.499 630.328 128.815Z" fill="#46283D"/>
<path d="M620.352 125.955C620.352 125.955 620.784 126.363 621.564 126.807C621.968 126.992 622.421 127.262 622.959 127.412C623.489 127.589 624.055 127.757 624.65 127.814C625.229 127.962 625.819 128.001 626.38 128.001C626.938 128.038 627.462 128.04 627.904 127.954C628.798 127.845 629.392 127.772 629.392 127.772L629.437 127.971C629.437 127.971 628.968 128.622 628.038 129.168C627.586 129.487 627.005 129.688 626.355 129.784C626.032 129.824 625.691 129.914 625.348 129.914C625.005 129.905 624.652 129.847 624.297 129.812C623.949 129.727 623.602 129.668 623.271 129.548C622.934 129.438 622.636 129.233 622.337 129.085C622.033 128.953 621.781 128.72 621.55 128.505C621.312 128.302 621.109 128.088 620.943 127.863C620.61 127.41 620.405 126.984 620.305 126.635C620.202 126.304 620.224 126.097 620.212 126.099L620.352 125.955Z" fill="#46283D"/>
<path d="M616.429 118.721C613.102 114.486 617.735 107.47 622.871 108.483C621.247 112.046 618.823 115.641 616.429 118.721Z" fill="#46283D"/>
<path d="M634.529 100.835C640.465 94.2568 653.048 95.5988 657.401 103.216C653.655 102.221 650.137 100.857 646.205 100.658C642.43 100.081 638.323 100.638 634.529 100.835Z" fill="#46283D"/>
<path d="M688.939 119.155C691.326 125.636 687.042 133.182 679.366 136.01C671.692 138.838 663.535 135.878 661.147 129.396C658.759 122.915 663.043 115.369 670.719 112.541C678.394 109.713 686.551 112.673 688.939 119.155Z" fill="#C6606C"/>
<path d="M628.834 141.665C626.447 135.184 618.289 132.224 610.615 135.05C610.503 135.091 610.398 135.143 610.288 135.186C610.838 136.567 611.423 137.909 612.038 139.202C614.907 145.226 618.466 151.347 622.721 156.773C628.146 153.249 630.832 147.089 628.834 141.665Z" fill="#C6606C"/>
<path d="M679.382 44.7072C675.598 41.5807 640.567 54.4157 637.783 54.0868C635.79 53.8513 623.99 47.9576 613.224 48.6885L606.53 50.2051C605.682 50.5644 604.857 50.9928 604.066 51.4983C607.062 51.8516 610.278 52.8626 613.4 55.0715C624.096 62.6401 631.307 85.1836 646.871 90.7789C662.434 96.3741 670.661 87.3234 670.661 87.3234C670.661 87.3234 680.838 112.527 701.089 98.6094C694.286 79.8482 682.079 46.9344 679.382 44.7072Z" fill="#4F3749"/>
<path d="M679.382 44.7073C679.382 44.7073 683.989 68.5663 670.661 87.3255" stroke="#46283D" stroke-width="0.5" stroke-miterlimit="10"/>
<path d="M677.502 97.4479C677.502 97.4479 682.994 80.0104 679.707 62.5242" stroke="#46283D" stroke-width="0.5" stroke-miterlimit="10"/>
<path d="M702.23 127.721L697.24 101.819C697.24 101.819 697.072 86.5012 706.945 86.5012C716.818 86.5012 723.927 120.81 702.23 127.721Z" fill="#CE8565"/>
<path d="M716.219 101.791C709.229 92.0012 697.24 101.819 697.24 101.819L702.23 127.721C714.138 123.928 717.358 111.887 716.219 101.791Z" fill="#BC5F50"/>
<path d="M621.791 677.878C621.791 677.878 611.754 768.378 607.805 770.352C603.856 772.327 580.162 774.958 565.682 773.643C551.203 772.327 522.902 763.77 522.902 763.77C522.244 755.213 508.422 665.7 516.978 593.959C520.565 563.889 550.216 414.933 557.456 399.466C564.696 384 595.63 343.851 595.63 343.851C595.63 343.851 597.275 311.601 597.934 301.068C598.592 290.537 604.066 271.12 604.066 271.12C604.066 271.12 596.826 245.781 604.066 233.933C611.305 222.085 629.494 212.543 629.494 212.543C637.72 199.05 650.588 188.19 661.502 181.815C661.502 181.815 667.463 178.561 668.787 182.398C668.787 182.398 652.852 202.999 650.034 213.613C650.034 213.613 671.763 218.796 689.601 219.289C689.601 219.289 706.246 191.189 718.566 182.654C718.566 182.654 724.323 181.147 730.073 185.657C730.073 185.657 711.305 218.796 710.483 241.749C709.661 264.703 717.019 274.824 722.224 277.538C727.432 280.252 731.654 279.434 731.654 279.434C731.654 279.434 701.516 346.894 701.268 354.3C701.02 361.704 719.532 429.087 723.481 438.958C727.429 448.831 716.57 587.05 718.543 603.832C720.519 620.616 761.49 695.155 764.452 700.584C767.415 706.014 754.086 743.531 745.2 753.897C736.314 764.263 703.735 768.921 698.304 768.567C692.875 768.214 621.791 677.878 621.791 677.878Z" fill="#409996"/>
<path d="M621.791 677.878C612.412 667.512 599.569 641.348 599.577 615.68C599.579 607.766 611.425 485.361 611.425 485.361C611.425 485.361 647.461 441.427 710.646 433.036" stroke="#31726D" stroke-width="0.75" stroke-miterlimit="10"/>
<path d="M561.567 405.884C561.567 405.884 580.326 459.788 594.148 477.262" stroke="#31726D" stroke-width="0.75" stroke-miterlimit="10"/>
<path d="M559.1 433.034C559.1 433.034 575.884 466.602 599.579 487.334" stroke="#31726D" stroke-width="0.75" stroke-miterlimit="10"/>
<path d="M723.982 278.34C723.982 278.34 723.432 279.719 722.482 282.108" stroke="#31726D" stroke-width="0.75" stroke-miterlimit="10"/>
<path d="M720.212 287.829C712.298 307.799 694.684 352.561 694.684 355.368C694.684 358.988 704.179 425.478 706.177 433.698C708.177 441.918 683.825 608.439 684.811 617.325C685.66 624.967 735.029 711.644 748.83 735.755" stroke="#31726D" stroke-width="0.75" stroke-miterlimit="10" stroke-dasharray="4.04 3.03"/>
<path d="M750.363 738.429C751.658 740.689 752.381 741.946 752.381 741.946" stroke="#31726D" stroke-width="0.75" stroke-miterlimit="10"/>
<path d="M600.531 628.19L574.9 773.996" stroke="#31726D" stroke-width="0.75" stroke-miterlimit="10"/>
<path d="M666.411 362.608C666.411 362.608 672.307 397.82 674.283 399.796C676.258 401.771 701.609 405.884 701.609 405.884" stroke="#31726D" stroke-width="0.75" stroke-miterlimit="10"/>
<path d="M599.577 349.115C599.577 349.115 581.149 374.126 579.338 375.443C577.527 376.759 568.37 381.406 568.37 381.406" stroke="#31726D" stroke-width="0.75" stroke-miterlimit="10"/>
<path d="M631.567 225.378C632.909 223.872 686.458 233.935 687.773 235.58C689.089 237.224 679.218 272.438 676.749 274.412C674.281 276.387 639.069 288.233 636.106 287.247C633.144 286.26 620.784 264.21 619.889 261.248C618.994 258.288 628.345 228.998 631.567 225.378Z" fill="#7FC8A9"/>
<path d="M628.296 231.997C628.296 231.997 659.951 235.361 686.697 243.203" stroke="#409996" stroke-width="0.5" stroke-miterlimit="10"/>
<path d="M626.816 235.88C626.816 235.88 661.791 241.758 685.477 248.212" stroke="#409996" stroke-width="0.5" stroke-miterlimit="10"/>
<path d="M596.197 332.856C599.307 334.183 601.307 341.711 629.689 347.388C658.073 353.064 699.819 345.09 703.627 346.115C707.436 347.14 706.705 364.624 703.246 365.631C699.786 366.638 670.665 376.716 632.899 369.6C598.838 363.183 592.631 353.04 591.168 349.721C589.706 346.401 594.375 332.08 596.197 332.856Z" fill="#7FC8A9"/>
<path d="M671.32 372.839C671.32 375.551 669.124 377.748 666.411 377.748C663.701 377.748 661.502 375.551 661.502 372.839V349.089C661.502 346.379 663.701 344.18 666.411 344.18C669.124 344.18 671.32 346.379 671.32 349.089V372.839Z" fill="#3B8985"/>
<path d="M690.9 370.534C690.9 373.245 688.701 375.443 685.991 375.443C683.278 375.443 681.082 373.245 681.082 370.534V346.785C681.082 344.074 683.278 341.876 685.991 341.876C688.701 341.876 690.9 344.074 690.9 346.785V370.534Z" fill="#3B8985"/>
<path d="M600.527 356.938C599.796 359.549 597.086 361.071 594.475 360.341C591.864 359.61 590.341 356.899 591.072 354.289L597.48 331.42C598.21 328.809 600.921 327.287 603.532 328.018C606.143 328.748 607.665 331.459 606.934 334.07L600.527 356.938Z" fill="#3B8985"/>
<path d="M791.659 263.223C785.778 268.705 775.913 275.403 769.059 279.349C761.208 283.871 750.286 286.488 744.077 287.35C748.615 299.741 752.805 311.938 752.381 316.208C751.498 325.094 718.582 388.733 718.582 388.733C718.582 388.733 711.435 385.818 703.057 388.733C694.678 391.649 683.429 392.741 680.31 392.375C677.192 392.012 682.813 399.099 691.302 400.565C699.79 402.031 676.948 417.513 677.07 422.977C677.192 428.44 694.426 411.177 697.825 411.319C701.223 411.461 679.847 430.761 680.31 434.634C680.771 438.508 701.91 419.335 704.851 419.698C707.793 420.061 690.67 437.548 692.494 439.734C694.315 441.921 711.072 422.248 713.624 422.248C716.174 422.248 702.277 439.371 704.853 441.921C707.432 444.471 727.267 420.201 734.178 407.366C736.604 402.859 805.262 338.587 806.906 315.221C807.753 303.19 800.907 281.635 791.659 263.223Z" fill="#CE8565"/>
</svg>
